<svg width="18" height="18" viewBox="0 0 18 18" fill="none" xmlns="http://www.w3.org/2000/svg">
<path fill-rule="evenodd" clip-rule="evenodd" d="M4.79083 0C4.95659 0 5.11557 0.065848 5.23278 0.183058C5.34999 0.300269 5.41583 0.45924 5.41583 0.625V1.26083C5.9675 1.25 6.575 1.25 7.24333 1.25H10.6708C11.34 1.25 11.9475 1.25 12.4992 1.26083V0.625C12.4992 0.45924 12.565 0.300269 12.6822 0.183058C12.7994 0.065848 12.9584 0 13.1242 0C13.2899 0 13.4489 0.065848 13.5661 0.183058C13.6833 0.300269 13.7492 0.45924 13.7492 0.625V1.31417C13.9658 1.33083 14.1708 1.35167 14.365 1.3775C15.3417 1.50917 16.1325 1.78583 16.7567 2.40917C17.38 3.03333 17.6567 3.82417 17.7883 4.80083C17.9158 5.75083 17.9158 6.96333 17.9158 8.495V10.255C17.9158 11.7867 17.9158 13 17.7883 13.9492C17.6567 14.9258 17.38 15.7167 16.7567 16.3408C16.1325 16.9642 15.3417 17.2408 14.365 17.3725C13.415 17.5 12.2025 17.5 10.6708 17.5H7.245C5.71333 17.5 4.5 17.5 3.55083 17.3725C2.57417 17.2408 1.78333 16.9642 1.15917 16.3408C0.535833 15.7167 0.259167 14.9258 0.1275 13.9492C0 12.9992 0 11.7867 0 10.255V8.495C0 6.96333 0 5.75 0.1275 4.80083C0.259167 3.82417 0.535833 3.03333 1.15917 2.40917C1.78333 1.78583 2.57417 1.50917 3.55083 1.3775C3.745 1.35167 3.95083 1.33083 4.16667 1.31417V0.625C4.16667 0.459384 4.2324 0.300539 4.34943 0.183353C4.46646 0.0661663 4.62522 0.000220821 4.79083 0ZM3.71583 2.61667C2.87833 2.72917 2.395 2.94083 2.0425 3.29333C1.69 3.64583 1.47833 4.12917 1.36583 4.9675C1.34667 5.10917 1.33083 5.25917 1.3175 5.41667H16.5975C16.5842 5.25833 16.5683 5.10917 16.5492 4.96667C16.4367 4.12917 16.225 3.64583 15.8725 3.29333C15.52 2.94083 15.0367 2.72917 14.1983 2.61667C13.3425 2.50167 12.2133 2.5 10.6242 2.5H7.29083C5.70167 2.5 4.57333 2.50167 3.71583 2.61667ZM1.24917 8.54167C1.24917 7.83 1.24917 7.21083 1.26 6.66667H16.655C16.6658 7.21083 16.6658 7.83 16.6658 8.54167V10.2083C16.6658 11.7975 16.6642 12.9267 16.5492 13.7833C16.4367 14.6208 16.225 15.1042 15.8725 15.4567C15.52 15.8092 15.0367 16.0208 14.1983 16.1333C13.3425 16.2483 12.2133 16.25 10.6242 16.25H7.29083C5.70167 16.25 4.57333 16.2483 3.71583 16.1333C2.87833 16.0208 2.395 15.8092 2.0425 15.4567C1.69 15.1042 1.47833 14.6208 1.36583 13.7825C1.25083 12.9267 1.24917 11.7975 1.24917 10.2083V8.54167Z" fill="#3D68FD"/>
</svg>
